HIERARCHY
ROOT Hips
{
	OFFSET 0.000000 0.000000 0.000000
	CHANNELS 6 Xposition Yposition Zposition Xrotation Yrotation Zrotation
	JOINT LeftUpLeg_virtual
	{
		OFFSET 0.000000 0.000000 0.000000
		CHANNELS 3 Xrotation Yrotation Zrotation
		JOINT LeftUpLeg
		{
			OFFSET 13.026900 -6.336304 -1.092800
			CHANNELS 3 Xrotation Yrotation Zrotation
			JOINT LeftLeg
			{
				OFFSET 0.524474 -46.096886 9.782700
				CHANNELS 3 Xrotation Yrotation Zrotation
				JOINT LeftFoot
				{
					OFFSET -0.524474 -53.427422 -12.948200
					CHANNELS 3 Xrotation Yrotation Zrotation
					JOINT LeftToeBase
					{
						OFFSET 0.192200 -14.009700 16.364100
						CHANNELS 3 Xrotation Yrotation Zrotation
						JOINT LeftToe_End
						{
							OFFSET -1.784700 -0.561700 9.474800
							CHANNELS 3 Xrotation Yrotation Zrotation
							End Site
							{
								OFFSET 0 0 0
							}
						}
					}
				}
			}
		}
	}
	JOINT RightUpLeg_virtual
	{
		OFFSET 0.000000 0.000000 0.000000
		CHANNELS 3 Xrotation Yrotation Zrotation
		JOINT RightUpLeg
		{
			OFFSET -12.883000 -6.336304 -1.092800
			CHANNELS 3 Xrotation Yrotation Zrotation
			JOINT RightLeg
			{
				OFFSET -0.524587 -46.096825 9.782800
				CHANNELS 3 Xrotation Yrotation Zrotation
				JOINT RightFoot
				{
					OFFSET 0.524587 -53.427383 -12.948300
					CHANNELS 3 Xrotation Yrotation Zrotation
					JOINT RightToeBase
					{
						OFFSET -0.192200 -14.009700 16.364100
						CHANNELS 3 Xrotation Yrotation Zrotation
						JOINT RightToe_End
						{
							OFFSET 1.784700 -0.561700 9.474800
							CHANNELS 3 Xrotation Yrotation Zrotation
							End Site
							{
								OFFSET 0 0 0
							}
						}
					}
				}
			}
		}
	}
	JOINT Spine_virtual
	{
		OFFSET 0.000000 0.000000 0.000000
		CHANNELS 3 Xrotation Yrotation Zrotation
		JOINT Spine
		{
			OFFSET 0.072000 7.257294 -0.789700
			CHANNELS 3 Xrotation Yrotation Zrotation
			JOINT Spine1
			{
				OFFSET 0.000000 12.508769 -0.658067
				CHANNELS 3 Xrotation Yrotation Zrotation
				JOINT Spine1_split
				{
					OFFSET 0.000000 12.508769 -0.658067
					CHANNELS 3 Xrotation Yrotation Zrotation
					JOINT Spine2
					{
						OFFSET 0.000000 12.508769 -0.658067
						CHANNELS 3 Xrotation Yrotation Zrotation
						JOINT Neck_virtual
						{
							OFFSET 0.000000 0.000000 0.000000
							CHANNELS 3 Xrotation Yrotation Zrotation
							JOINT Neck
							{
								OFFSET 0.000000 14.033295 7.520400
								CHANNELS 3 Xrotation Yrotation Zrotation
								JOINT Head
								{
									OFFSET 0.000000 8.198502 5.703100
									CHANNELS 3 Xrotation Yrotation Zrotation
									JOINT HeadTop_End
									{
										OFFSET 0.000000 17.760803 13.332701
										CHANNELS 3 Xrotation Yrotation Zrotation
										End Site
										{
											OFFSET 0 0 0
										}
									}
								}
							}
						}
						JOINT LeftShoulder_virtual
						{
							OFFSET 0.000000 0.000000 0.000000
							CHANNELS 3 Xrotation Yrotation Zrotation
							JOINT LeftShoulder
							{
								OFFSET 6.292450 5.785301 -0.669000
								CHANNELS 3 Xrotation Yrotation Zrotation
								JOINT LeftShoulder_split
								{
									OFFSET 6.292450 5.785301 -0.669000
									CHANNELS 3 Xrotation Yrotation Zrotation
									JOINT LeftArm
									{
										OFFSET 13.907140 -6.093903 1.965100
										CHANNELS 3 Xrotation Yrotation Zrotation
										JOINT LeftForeArm
										{
											OFFSET 34.140198 0.000000 0.000000
											CHANNELS 3 Xrotation Yrotation Zrotation
											JOINT LeftHand
											{
												OFFSET 40.960209 0.000000 0.000000
												CHANNELS 3 Xrotation Yrotation Zrotation
												End Site
												{
													OFFSET 0 0 0
												}
											}
										}
									}
								}
							}
						}
						JOINT RightShoulder_virtual
						{
							OFFSET 0.000000 0.000000 0.000000
							CHANNELS 3 Xrotation Yrotation Zrotation
							JOINT RightShoulder
							{
								OFFSET -6.292450 5.785301 -0.669000
								CHANNELS 3 Xrotation Yrotation Zrotation
								JOINT RightShoulder_split
								{
									OFFSET -6.292450 5.785301 -0.669000
									CHANNELS 3 Xrotation Yrotation Zrotation
									JOINT RightArm
									{
										OFFSET -13.907140 -6.093903 1.965100
										CHANNELS 3 Xrotation Yrotation Zrotation
										JOINT RightForeArm
										{
											OFFSET -34.140198 0.000000 0.000000
											CHANNELS 3 Xrotation Yrotation Zrotation
											JOINT RightHand
											{
												OFFSET -40.960209 0.000000 0.000000
												CHANNELS 3 Xrotation Yrotation Zrotation
												End Site
												{
													OFFSET 0 0 0
												}
											}
										}
									}
								}
							}
						}
					}
				}
			}
		}
	}
}
MOTION
Frames: 4
Frame Time: 0.03333333
5.569516 91.375465 -10.840359 0.000000 0.000000 0.000000 -5.266823 -36.126807 14.916928 -15.633615 31.734275 4.806402 46.202804 -2.065624 3.835159 -16.917832 17.828414 -6.594523 -0.541399 -0.854860 -0.890227 0.000000 0.000000 0.000000 -4.613427 -32.757335 15.134646 -37.617728 10.978237 -26.109643 67.723976 9.410084 -6.088025 -20.856758 -14.309905 36.118368 2.340050 4.338776 -13.911378 0.000000 0.000000 0.000000 -7.667654 -31.343868 13.685008 -2.281322 -7.461104 5.808572 3.730145 -0.244481 2.426328 0.100234 -0.498006 0.044060 0.000000 0.000000 0.000000 2.475309 2.286939 3.021098 -17.651359 18.606269 19.577714 10.468111 -22.301191 -34.666782 0.000000 0.000000 0.000000 4.595061 -0.654588 2.955270 -0.873310 -5.750349 14.912589 -7.069052 1.814807 0.052314 -26.574231 -36.118406 -27.676779 83.742607 -83.571080 78.610881 0.000000 0.000000 0.000000 3.814191 0.348323 2.911209 -2.083386 6.177533 12.235242 -5.250405 -4.278264 5.146436 37.352290 68.724817 -9.241846 -17.173452 45.446460 26.905724 0.000000 0.000000 0.000000 
6.553968 91.852272 -10.234829 0.000000 0.000000 0.000000 -4.209170 -35.129596 15.741581 -16.812094 31.398564 3.945169 45.509462 -2.095825 4.088421 -16.189179 16.816549 -6.138538 -0.619799 -0.645940 -1.267228 0.000000 0.000000 0.000000 -3.789935 -31.821312 15.876198 -38.749774 10.991984 -26.257861 67.264031 9.244542 -5.698080 -19.736387 -13.700041 35.698032 1.627302 4.350596 -13.724330 0.000000 0.000000 0.000000 -6.597954 -30.056801 14.611885 -1.911613 -7.086491 5.900932 3.631707 -0.200560 2.361144 0.112121 -0.443429 0.007614 0.000000 0.000000 0.000000 2.443859 2.353580 2.946561 -17.834179 18.344421 18.856419 10.155198 -21.799124 -34.942889 0.000000 0.000000 0.000000 4.402957 -0.489045 2.830136 -0.839069 -5.908506 14.734677 -6.258059 1.930071 -0.181661 -25.658475 -36.620442 -27.296960 108.433631 -83.517627 103.934067 0.000000 0.000000 0.000000 3.933622 0.499702 2.851833 -2.050264 5.222712 12.669534 -4.857543 -4.089901 4.681789 38.577264 69.104193 -10.637084 -16.018455 44.559396 25.571887 0.000000 0.000000 0.000000 
7.521678 92.706139 -9.725956 0.000000 0.000000 0.000000 -3.232210 -33.954441 16.465050 -17.866554 31.283475 3.078511 44.183367 -2.105229 4.225658 -15.406048 15.597446 -5.813282 -0.288705 -0.454153 -1.498028 0.000000 0.000000 0.000000 -2.987963 -31.002037 16.593306 -40.093866 10.787810 -26.229441 66.303836 9.185124 -5.365278 -18.576649 -12.810659 34.854701 1.472795 4.218093 -13.489198 0.000000 0.000000 0.000000 -5.606869 -28.519709 15.408058 -1.292435 -6.763000 6.200970 3.536679 -0.129740 2.281192 0.097623 -0.469048 -0.030155 0.000000 0.000000 0.000000 2.495433 2.420913 2.862716 -18.164089 17.958639 18.161645 9.405596 -21.229060 -35.537450 0.000000 0.000000 0.000000 4.210837 -0.296755 2.679324 -0.876365 -5.775322 14.257786 -5.487763 1.978333 -0.385445 -23.683993 -36.647271 -26.845912 127.150665 -82.368379 123.316989 0.000000 0.000000 0.000000 4.039550 0.640386 2.746194 -1.956649 4.434021 12.844816 -4.602982 -3.940505 4.487281 42.288269 69.272824 -15.085373 -14.934289 43.410838 24.279046 0.000000 0.000000 0.000000 
8.428067 93.853477 -9.334255 0.000000 0.000000 0.000000 -2.365579 -32.574190 17.028263 -18.680175 31.280603 2.219228 42.320733 -2.029225 4.239140 -14.624692 14.314699 -5.442005 0.356549 -0.298503 -1.523524 0.000000 0.000000 0.000000 -2.247821 -30.118945 17.207570 -41.527779 10.336474 -26.055836 64.831391 9.173590 -5.045468 -17.464918 -11.728505 33.520622 1.999080 3.948864 -13.264551 0.000000 0.000000 0.000000 -4.723340 -26.760113 16.016268 -0.483583 -6.515942 6.581344 3.430229 -0.019235 2.196579 0.085943 -0.578781 -0.043865 0.000000 0.000000 0.000000 2.695399 2.508196 2.777265 -18.528449 17.501936 17.516812 8.175998 -20.506188 -36.314630 0.000000 0.000000 0.000000 4.029745 -0.088465 2.510930 -1.003335 -5.373139 13.574562 -4.774772 2.008862 -0.386936 -21.277709 -36.220558 -26.518857 137.108944 -81.047482 133.940720 0.000000 0.000000 0.000000 4.083721 0.747587 2.603789 -1.787979 3.819991 12.739564 -4.478524 -3.905357 4.580990 47.995466 69.255523 -21.932876 -14.019674 41.895810 23.123199 0.000000 0.000000 0.000000 
